<?xml version="1.0" encoding="UTF-8" standalone="no"?>
<svg width="385px" height="94px" viewBox="0 0 385 94" version="1.1" xmlns="http://www.w3.org/2000/svg" xmlns:xlink="http://www.w3.org/1999/xlink">
    <!-- Generator: sketchtool 3.6.1 (26313) - http://www.bohemiancoding.com/sketch -->
    <title>5F57A57D-27D3-4D1D-B7F9-0F7326F76E9D</title>
    <desc>Created with sketchtool.</desc>
    <defs></defs>
    <g id="catalog+login" stroke="none" stroke-width="1" fill="none" fill-rule="evenodd">
        <g id="login-3" transform="translate(-608.000000, -686.000000)">
            <g id="Group-5" transform="translate(582.000000, 647.000000)">
                <g id="Group-Copy-6">
                    <rect id="Rectangle-150" x="0" y="0" width="437" height="175"></rect>
                    <g id="Group-2" transform="translate(26.509191, 39.334862)">
                        <path d="M53.0590011,85.8668359 C52.3657653,90.1339943 49.8693225,91.5272169 47.1201926,92.0389047 C44.0667797,92.6036172 35.7254592,93.3857308 26.8827333,93.3804283 L26.5890342,93.3804283 C17.7463083,93.3751258 9.56109812,92.5983148 6.50636233,92.0282998 C3.75723241,91.516612 1.74235038,90.1180869 1.04382267,85.8509285 C0.154787392,80.3522727 0,77.1363279 0,70.9894457 L0,70.7521605 C0,64.5999759 0.160079268,61.3694493 1.04911454,55.8747703 C1.74631929,51.6076119 3.92789544,50.039408 6.67702535,49.5263945 C9.73176114,48.9563796 17.7568921,48.0045872 26.594326,48.0045872 L26.8880252,48.0045872 C35.7307511,48.0045872 43.9159613,48.9669845 46.970697,49.5369994 C49.719827,50.0486873 52.3657653,51.5413311 53.0590011,55.8018614 C55.2908501,69.907743 53.9520053,80.3734825 53.0590011,85.8668359 L53.0590011,85.8668359 Z" id="Mask" fill="#8A62AF"></path>
                        <path d="M97.2695761,71.9255047 C96.7806451,74.9350806 95.0199338,75.9177039 93.0810053,76.2785912 C90.9274697,76.6768762 85.0444359,77.2284915 78.8077668,77.2247517 L78.6006243,77.2247517 C72.3639553,77.221012 66.5910243,76.6731364 64.4365556,76.2711116 C62.4976271,75.9102243 61.0765548,74.9238613 60.5838915,71.9142854 C59.9568656,68.0361491 59.8476959,65.7679816 59.8476959,61.432659 L59.8476959,61.2653045 C59.8476959,56.9262421 59.9605979,54.6477903 60.5876238,50.7724588 C61.079354,47.7628829 62.6179936,46.6568474 64.5569222,46.2950251 C66.7113909,45.8930004 72.3714199,45.2217125 78.6043566,45.2217125 L78.8114991,45.2217125 C85.0481682,45.2217125 90.8210992,45.9004799 92.9755679,46.3025046 C94.9144964,46.663392 96.7806451,47.7161358 97.2695761,50.721037 C98.8436725,60.6697469 97.8994013,68.0511081 97.2695761,71.9255047 L97.2695761,71.9255047 Z" id="Mask" fill="#617787"></path>
                        <path d="M50.8596955,37.5958677 C50.4770539,39.9511879 49.0991059,40.7201974 47.5816836,41.002631 C45.8963079,41.3143323 41.2921945,41.7460312 36.4113231,41.7431045 L36.2492115,41.7431045 C31.3683401,41.7401777 26.8503941,41.3114055 25.1642882,40.9967774 C23.6468658,40.7143439 22.5347223,39.9424076 22.1491598,37.5870873 C21.6584438,34.5520241 21.5730067,32.7769365 21.5730067,29.3840754 L21.5730067,29.2531023 C21.5730067,25.8573143 21.6613647,24.0741781 22.1520807,21.04131 C22.536913,18.6859897 23.7410658,17.8203967 25.2584881,17.5372315 C26.944594,17.2226034 31.374182,16.6972477 36.2521325,16.6972477 L36.414244,16.6972477 C41.2951154,16.6972477 45.8130614,17.2284569 47.4991674,17.543085 C49.0165897,17.8255186 50.4770539,18.649405 50.8596955,21.0010669 C52.0915971,28.7870137 51.3526022,34.5637312 50.8596955,37.5958677 L50.8596955,37.5958677 Z" id="Mask" fill="#BCC8D2"></path>
                        <path d="M78.6860424,40.3742322 C78.3671744,42.3369991 77.2188844,42.9778404 75.9543658,43.2132017 C74.5498861,43.4729527 70.7131249,43.8327019 66.645732,43.8302629 L66.5106391,43.8302629 C62.4432463,43.8278239 58.6782912,43.4705138 57.2732029,43.2083237 C56.0086843,42.9729624 55.0818981,42.3296822 54.760596,40.3669153 C54.351666,37.8376959 54.2804684,36.3584563 54.2804684,33.531072 L54.2804684,33.4219277 C54.2804684,30.5921045 54.3541001,29.1061576 54.7630301,26.5787675 C55.0837237,24.6160006 56.0871843,23.8946731 57.3517029,23.658702 C58.7567912,23.396512 62.4481145,22.9587156 66.5130732,22.9587156 L66.6481661,22.9587156 C70.715559,22.9587156 74.480514,23.40139 75.8856023,23.66358 C77.1501209,23.8989413 78.3671744,24.5855134 78.6860424,26.5452316 C79.712627,33.0335206 79.096798,37.8474518 78.6860424,40.3742322 L78.6860424,40.3742322 Z" id="Mask" fill="#906EB4"></path>
                        <path d="M119.115978,17.9602975 C118.787135,19.9844624 117.602925,20.64535 116.298851,20.8880737 C114.850437,21.1559502 110.893657,21.5269527 106.69903,21.5244375 L106.559711,21.5244375 C102.365085,21.5219222 98.4823572,21.1534349 97.0333158,20.8830432 C95.7292414,20.6403195 94.773464,19.9769166 94.4421111,17.9527517 C94.0203892,15.3444149 93.9469645,13.8189027 93.9469645,10.9030739 L93.9469645,10.7905155 C93.9469645,7.87217156 94.0228995,6.33974229 94.4446214,3.733292 C94.7753467,1.70912711 95.8101969,0.96523551 97.1142714,0.721882974 C98.5633127,0.451491268 102.370106,0 106.562222,0 L106.701541,0 C110.896167,0 114.778895,0.456521811 116.227936,0.726913518 C117.532011,0.969637235 118.787135,1.67768622 119.115978,3.69870702 C120.174675,10.3899585 119.539582,15.354476 119.115978,17.9602975 L119.115978,17.9602975 Z" id="Mask" fill="#BEACCE"></path>
                        <path d="M103.701166,22.7463529 C103.424814,24.4474176 102.429629,25.0028133 101.333713,25.2067931 C100.116497,25.4319107 96.7913043,25.7436933 93.2662305,25.7415795 L93.1491499,25.7415795 C89.6240761,25.7394657 86.3611151,25.4297969 85.1433719,25.2025656 C84.0474558,24.9985858 83.2442411,24.4410762 82.9657792,22.7400116 C82.6113732,20.5480215 82.5496686,19.2660138 82.5496686,16.8156141 L82.5496686,16.7210224 C82.5496686,14.2685089 82.6134828,12.9806883 82.9678888,10.7902835 C83.2458232,9.08921887 84.1154891,8.46406836 85.2114052,8.25956012 C86.4291484,8.03232875 89.6282953,7.6529052 93.1512595,7.6529052 L93.26834,7.6529052 C96.7934138,7.6529052 100.056375,8.03655631 101.274118,8.26378769 C102.370034,8.46776748 103.424814,9.06279661 103.701166,10.761219 C104.590873,16.3844029 104.057154,20.5564766 103.701166,22.7463529 L103.701166,22.7463529 Z" id="Mask" fill="#7C909F"></path>
                        <path d="M73.5152073,18.2023949 C73.3730051,19.0777095 72.8609143,19.3634987 72.2969902,19.4684603 C71.6706491,19.5842988 69.959609,19.7447324 68.1457165,19.7436447 L68.0854705,19.7436447 C66.271578,19.742557 64.5925605,19.5832111 63.9659481,19.466285 C63.402024,19.3613234 62.9887148,19.0744464 62.8454271,18.1991319 C62.6630609,17.0712025 62.6313096,16.4115215 62.6313096,15.1506226 L62.6313096,15.1019487 C62.6313096,13.8399621 62.6641464,13.17729 62.8465126,12.0501764 C62.989529,11.1748618 63.4370318,10.853179 64.0009559,10.7479454 C64.6275683,10.6310193 66.273749,10.4357798 68.086556,10.4357798 L68.146802,10.4357798 C69.9606945,10.4357798 71.6397119,10.6331947 72.2663244,10.7501208 C72.8302485,10.8550824 73.3730051,11.1612657 73.5152073,12.0352207 C73.9730225,14.9287349 73.6983877,17.0755532 73.5152073,18.2023949 L73.5152073,18.2023949 Z" id="Mask" fill="#6A8090"></path>
                    </g>
                    <path d="M220.696128,65.8944462 C207.673249,65.8944462 197.072244,77.1490793 197.072244,90.9889491 L197.072244,97.7365349 C197.072244,111.577585 207.673249,122.839301 220.696128,122.839301 L242.819914,122.839301 C245.467215,122.839301 246.554225,120.560988 246.554225,117.744378 C246.554225,114.927769 245.467215,112.645914 242.819914,112.645914 L220.696128,112.645914 C212.961949,112.645914 206.661775,105.962073 206.661775,97.7365349 L206.661775,90.9889491 C206.661775,82.7752154 212.961949,76.0878337 220.696128,76.0878337 L242.819914,76.0878337 C245.467215,76.0878337 246.554225,73.8071592 246.554225,70.9893692 C246.554225,68.1763012 245.467215,65.8944462 242.819914,65.8944462 L220.696128,65.8944462 Z M295.0219,65.7416929 L255.456379,65.7416929 C252.803177,65.7416929 251.720887,68.0200065 251.720887,70.8401574 C251.720887,73.6544059 252.803177,75.9303586 255.456379,75.9303586 L270.442013,75.9303586 L270.442013,118.479341 C270.442013,121.292409 272.59715,122.441009 275.245631,122.441009 C277.890571,122.441009 280.040986,121.292409 280.040986,118.479341 L280.040986,75.9303586 L295.0219,75.9303586 C297.673921,75.9303586 298.75503,73.6544059 298.75503,70.8401574 C298.75503,68.0200065 297.673921,65.7416929 295.0219,65.7416929 Z M344.750317,70.3310192 L344.750317,98.4758654 C344.750317,106.697862 338.453683,113.376981 330.724226,113.376981 L326.032732,113.376981 C318.303275,113.376981 312.00192,106.697862 312.00192,98.4758654 L312.00192,70.3310192 C312.00192,67.5214926 309.859767,66.3693506 307.211286,66.3693506 C304.562805,66.3693506 302.412389,67.5214926 302.412389,70.3310192 L302.412389,98.4758654 C302.412389,112.316916 313.013395,123.57391 326.032732,123.57391 L330.724226,123.57391 C343.742384,123.57391 354.343389,112.316916 354.343389,98.4758654 L354.343389,70.3310192 C354.343389,67.5214926 352.194154,66.3693506 349.544493,66.3693506 C346.897192,66.3693506 344.750317,67.5214926 344.750317,70.3310192 Z M375.790656,65.2366864 C366.057135,65.2366864 358.437441,71.238213 358.437441,78.8865 L358.4339,88.6348491 C358.4339,94.0473195 363.302431,98.2840385 369.505825,98.2840385 L399.294155,98.2840385 C399.976339,98.2840385 400.477946,98.4634704 400.775369,98.6204734 L400.775369,107.692411 C400.775369,109.414722 397.679573,112.010583 393.018766,112.010583 L362.648573,112.010583 C359.996551,112.010583 358.917802,114.291257 358.917802,117.109047 C358.917802,119.926837 359.996551,122.207512 362.648573,122.207512 L393.018766,122.207512 C402.746386,122.207512 410.370801,115.834136 410.370801,107.692411 L410.370801,97.8980237 C410.370801,92.4052811 405.496369,88.0953728 399.294155,88.0953728 L369.505825,88.0953728 C368.803576,88.0953728 368.327936,87.931287 368.029332,87.7778254 C368.029332,86.3541746 368.036414,78.8935828 368.036414,78.8935828 C368.036414,78.001145 370.700238,75.4336154 375.790656,75.4336154 L403.374279,75.4336154 C406.010958,75.4336154 407.102689,73.1446775 407.102689,70.330429 C407.102689,67.5220828 406.010958,65.2366864 403.374279,65.2366864 L375.790656,65.2366864 Z M164.494747,65.8944462 C151.461246,65.8944462 140.853159,77.1597036 140.853159,91.0042953 L140.853159,117.988736 C140.853159,120.806526 142.996493,121.955127 145.648515,121.955127 C148.299356,121.955127 150.447411,120.806526 150.447411,117.988736 L150.447411,91.0042953 C150.447411,82.7822982 156.752307,76.0878337 164.494747,76.0878337 L169.186241,76.0878337 C176.9275,76.0878337 183.226495,82.7822982 183.226495,91.0042953 L183.226495,117.988736 C183.226495,120.806526 185.369829,121.955127 188.017129,121.955127 C190.66443,121.955127 192.817206,120.806526 192.817206,117.988736 L192.817206,91.0042953 C192.817206,77.1597036 182.21266,65.8944462 169.186241,65.8944462 L164.494747,65.8944462 Z M158.14453,89.4543337 C155.747442,89.4543337 154.679316,91.5095379 154.679316,94.0392923 C154.679316,96.5808515 155.747442,98.6360556 158.14453,98.6360556 L175.994631,98.6360556 C178.382277,98.6360556 179.457484,96.5808515 179.457484,94.0392923 C179.457484,91.5095379 178.382277,89.4543337 175.994631,89.4543337 L158.14453,89.4543337 Z" id="Combined-Shape" fill="#4C5D67"></path>
                </g>
            </g>
        </g>
    </g>
</svg>